# xmcd
# 
# Track frame offsets:
#     150
#     19725
#     48167
#     59024
# 
# Disc length: 1060
# 
# Revision: 0
# Processed by: cddbd v1.5.2PL0 Copyright (c) Steve Scherf et al.
# Submitted via: BonkEnc v1.0.8
# 
DISCID=2e042204
DTITLE=Scala and Kolancy Brothers - With Or Without You - Clandestino
DYEAR=2005
DGENRE=Chorus
TTITLE0=With Or Without You (String Version)
TTITLE1=With Or Without You (Live Version)
TTITLE2=Clandestino (Album Version)
TTITLE3=With Or Without You (Album Version)
EXTD=
EXTT0=
EXTT1=
EXTT2=
EXTT3=
PLAYORDER=
